<?xml version="1.0" encoding="UTF-8" standalone="no"?>
<!DOCTYPE svg PUBLIC "-//W3C//DTD SVG 1.1//EN"
 "http://www.w3.org/Graphics/SVG/1.1/DTD/svg11.dtd">
<!-- Generated by graphviz version 2.40.1 (20161225.0304)
 -->
<!-- Title: dependencies Pages: 1 -->
<svg width="877pt" height="284pt"
 viewBox="0.00 0.00 877.00 284.00" xmlns="http://www.w3.org/2000/svg" xmlns:xlink="http://www.w3.org/1999/xlink">
<g id="graph0" class="graph" transform="scale(1 1) rotate(0) translate(4 280)">
<title>dependencies</title>
<polygon fill="#ffffff" stroke="transparent" points="-4,4 -4,-280 873,-280 873,4 -4,4"/>
<text text-anchor="start" x="413.5091" y="-42.4" font-family="sans-serif" font-weight="bold" font-size="14.00" fill="#000000">Legend</text>
<polygon fill="#ffffb3" stroke="transparent" points="200.5,-10 200.5,-30 220.5,-30 220.5,-10 200.5,-10"/>
<text text-anchor="start" x="224.129" y="-15.4" font-family="sans-serif" font-size="14.00" fill="#000000"> &#160;Declarations</text>
<polygon fill="#8dd3c7" stroke="transparent" points="313.5,-10 313.5,-30 333.5,-30 333.5,-10 313.5,-10"/>
<text text-anchor="start" x="337.2251" y="-15.4" font-family="sans-serif" font-size="14.00" fill="#000000"> &#160;Module</text>
<polygon fill="#80b1d3" stroke="transparent" points="399.5,-10 399.5,-30 419.5,-30 419.5,-10 399.5,-10"/>
<text text-anchor="start" x="423.2812" y="-15.4" font-family="sans-serif" font-size="14.00" fill="#000000"> &#160;Bootstrap</text>
<polygon fill="#fdb462" stroke="transparent" points="496.5,-10 496.5,-30 516.5,-30 516.5,-10 496.5,-10"/>
<text text-anchor="start" x="520.1732" y="-15.4" font-family="sans-serif" font-size="14.00" fill="#000000"> &#160;Providers</text>
<polygon fill="#fb8072" stroke="transparent" points="592.5,-10 592.5,-30 612.5,-30 612.5,-10 592.5,-10"/>
<text text-anchor="start" x="616.2258" y="-15.4" font-family="sans-serif" font-size="14.00" fill="#000000"> &#160;Exports</text>
<g id="clust1" class="cluster">
<title>cluster_HeaderModule</title>
<polygon fill="none" stroke="#000000" stroke-dasharray="1,5" points="8,-70 8,-268 861,-268 861,-70 8,-70"/>
</g>
<g id="clust2" class="cluster">
<title>cluster_HeaderModule_declarations</title>
<polygon fill="none" stroke="#000000" points="429,-78 429,-130 853,-130 853,-78 429,-78"/>
</g>
<g id="clust5" class="cluster">
<title>cluster_HeaderModule_imports</title>
<polygon fill="none" stroke="#000000" points="176,-78 176,-130 421,-130 421,-78 176,-78"/>
</g>
<g id="clust6" class="cluster">
<title>cluster_HeaderModule_exports</title>
<polygon fill="none" stroke="#000000" points="262,-208 262,-260 458,-260 458,-208 262,-208"/>
</g>
<g id="clust8" class="cluster">
<title>cluster_HeaderModule_providers</title>
<polygon fill="none" stroke="#000000" points="16,-78 16,-130 168,-130 168,-78 16,-78"/>
</g>
<!-- HeaderContainerComponent -->
<g id="node1" class="node">
<title>HeaderContainerComponent</title>
<polygon fill="#ffffb3" stroke="#000000" points="845.451,-122 668.549,-122 668.549,-86 845.451,-86 845.451,-122"/>
<text text-anchor="middle" x="757" y="-99.8" font-family="Times,serif" font-size="14.00" fill="#000000">HeaderContainerComponent</text>
</g>
<!-- HeaderModule -->
<g id="node3" class="node">
<title>HeaderModule</title>
<polygon fill="#8dd3c7" stroke="#000000" points="409.9608,-187 406.9608,-191 385.9608,-191 382.9608,-187 310.0392,-187 310.0392,-151 409.9608,-151 409.9608,-187"/>
<text text-anchor="middle" x="360" y="-164.8" font-family="Times,serif" font-size="14.00" fill="#000000">HeaderModule</text>
</g>
<!-- HeaderContainerComponent&#45;&gt;HeaderModule -->
<g id="edge1" class="edge">
<title>HeaderContainerComponent&#45;&gt;HeaderModule</title>
<path fill="none" stroke="#000000" d="M757,-122.2843C757,-143.3211 757,-175 757,-175 757,-175 420.2803,-175 420.2803,-175"/>
<polygon fill="#000000" stroke="#000000" points="420.2804,-171.5001 410.2803,-175 420.2803,-178.5001 420.2804,-171.5001"/>
</g>
<!-- SimpleHeaderPresenterComponent -->
<g id="node2" class="node">
<title>SimpleHeaderPresenterComponent</title>
<polygon fill="#ffffb3" stroke="#000000" points="650.9958,-122 437.0042,-122 437.0042,-86 650.9958,-86 650.9958,-122"/>
<text text-anchor="middle" x="544" y="-99.8" font-family="Times,serif" font-size="14.00" fill="#000000">SimpleHeaderPresenterComponent</text>
</g>
<!-- SimpleHeaderPresenterComponent&#45;&gt;HeaderModule -->
<g id="edge2" class="edge">
<title>SimpleHeaderPresenterComponent&#45;&gt;HeaderModule</title>
<path fill="none" stroke="#000000" d="M443.739,-122.0225C443.739,-139.3734 443.739,-163 443.739,-163 443.739,-163 420.1616,-163 420.1616,-163"/>
<polygon fill="#000000" stroke="#000000" points="420.1617,-159.5001 410.1616,-163 420.1616,-166.5001 420.1617,-159.5001"/>
</g>
<!-- HeaderContainerComponent  -->
<g id="node6" class="node">
<title>HeaderContainerComponent </title>
<polygon fill="#fb8072" stroke="#000000" points="450.4516,-252 269.5484,-252 269.5484,-216 450.4516,-216 450.4516,-252"/>
<text text-anchor="middle" x="360" y="-229.8" font-family="Times,serif" font-size="14.00" fill="#000000">HeaderContainerComponent </text>
</g>
<!-- HeaderModule&#45;&gt;HeaderContainerComponent  -->
<g id="edge5" class="edge">
<title>HeaderModule&#45;&gt;HeaderContainerComponent </title>
<path fill="none" stroke="#000000" stroke-dasharray="5,2" d="M360,-187.1061C360,-187.1061 360,-205.991 360,-205.991"/>
<polygon fill="#000000" stroke="#000000" points="356.5001,-205.9909 360,-215.991 363.5001,-205.991 356.5001,-205.9909"/>
</g>
<!-- MaterialModule -->
<g id="node4" class="node">
<title>MaterialModule</title>
<polygon fill="#8dd3c7" stroke="#000000" points="413.4706,-122 410.4706,-126 389.4706,-126 386.4706,-122 306.5294,-122 306.5294,-86 413.4706,-86 413.4706,-122"/>
<text text-anchor="middle" x="360" y="-99.8" font-family="Times,serif" font-size="14.00" fill="#000000">MaterialModule</text>
</g>
<!-- MaterialModule&#45;&gt;HeaderModule -->
<g id="edge3" class="edge">
<title>MaterialModule&#45;&gt;HeaderModule</title>
<path fill="none" stroke="#000000" d="M360,-122.1061C360,-122.1061 360,-140.991 360,-140.991"/>
<polygon fill="#000000" stroke="#000000" points="356.5001,-140.9909 360,-150.991 363.5001,-140.991 356.5001,-140.9909"/>
</g>
<!-- RoutingModule -->
<g id="node5" class="node">
<title>RoutingModule</title>
<polygon fill="#8dd3c7" stroke="#000000" points="288.1681,-122 285.1681,-126 264.1681,-126 261.1681,-122 183.8319,-122 183.8319,-86 288.1681,-86 288.1681,-122"/>
<text text-anchor="middle" x="236" y="-99.8" font-family="Times,serif" font-size="14.00" fill="#000000">RoutingModule</text>
</g>
<!-- RoutingModule&#45;&gt;HeaderModule -->
<g id="edge4" class="edge">
<title>RoutingModule&#45;&gt;HeaderModule</title>
<path fill="none" stroke="#000000" d="M279.0542,-122.0225C279.0542,-139.3734 279.0542,-163 279.0542,-163 279.0542,-163 299.6563,-163 299.6563,-163"/>
<polygon fill="#000000" stroke="#000000" points="299.6563,-166.5001 309.6563,-163 299.6563,-159.5001 299.6563,-166.5001"/>
</g>
<!-- HeaderService -->
<g id="node7" class="node">
<title>HeaderService</title>
<ellipse fill="#fdb462" stroke="#000000" cx="92" cy="-104" rx="67.7336" ry="18"/>
<text text-anchor="middle" x="92" y="-99.8" font-family="Times,serif" font-size="14.00" fill="#000000">HeaderService</text>
</g>
<!-- HeaderService&#45;&gt;HeaderModule -->
<g id="edge6" class="edge">
<title>HeaderService&#45;&gt;HeaderModule</title>
<path fill="none" stroke="#000000" d="M92,-122.2843C92,-143.3211 92,-175 92,-175 92,-175 299.9056,-175 299.9056,-175"/>
<polygon fill="#000000" stroke="#000000" points="299.9057,-178.5001 309.9056,-175 299.9056,-171.5001 299.9057,-178.5001"/>
</g>
</g>
</svg>
