<?xml version="1.0" encoding="UTF-8" standalone="no"?>
<!DOCTYPE svg PUBLIC "-//W3C//DTD SVG 1.1//EN"
 "http://www.w3.org/Graphics/SVG/1.1/DTD/svg11.dtd">
<!-- Generated by graphviz version 2.40.1 (20161225.0304)
 -->
<!-- Title: dependencies Pages: 1 -->
<svg width="1195pt" height="284pt"
 viewBox="0.00 0.00 1195.00 284.00" xmlns="http://www.w3.org/2000/svg" xmlns:xlink="http://www.w3.org/1999/xlink">
<g id="graph0" class="graph" transform="scale(1 1) rotate(0) translate(4 280)">
<title>dependencies</title>
<polygon fill="#ffffff" stroke="transparent" points="-4,4 -4,-280 1191,-280 1191,4 -4,4"/>
<text text-anchor="start" x="572.5091" y="-42.4" font-family="sans-serif" font-weight="bold" font-size="14.00" fill="#000000">Legend</text>
<polygon fill="#ffffb3" stroke="transparent" points="359.5,-10 359.5,-30 379.5,-30 379.5,-10 359.5,-10"/>
<text text-anchor="start" x="383.129" y="-15.4" font-family="sans-serif" font-size="14.00" fill="#000000"> &#160;Declarations</text>
<polygon fill="#8dd3c7" stroke="transparent" points="472.5,-10 472.5,-30 492.5,-30 492.5,-10 472.5,-10"/>
<text text-anchor="start" x="496.2251" y="-15.4" font-family="sans-serif" font-size="14.00" fill="#000000"> &#160;Module</text>
<polygon fill="#80b1d3" stroke="transparent" points="558.5,-10 558.5,-30 578.5,-30 578.5,-10 558.5,-10"/>
<text text-anchor="start" x="582.2812" y="-15.4" font-family="sans-serif" font-size="14.00" fill="#000000"> &#160;Bootstrap</text>
<polygon fill="#fdb462" stroke="transparent" points="655.5,-10 655.5,-30 675.5,-30 675.5,-10 655.5,-10"/>
<text text-anchor="start" x="679.1732" y="-15.4" font-family="sans-serif" font-size="14.00" fill="#000000"> &#160;Providers</text>
<polygon fill="#fb8072" stroke="transparent" points="751.5,-10 751.5,-30 771.5,-30 771.5,-10 751.5,-10"/>
<text text-anchor="start" x="775.2258" y="-15.4" font-family="sans-serif" font-size="14.00" fill="#000000"> &#160;Exports</text>
<g id="clust1" class="cluster">
<title>cluster_AppModule</title>
<polygon fill="none" stroke="#000000" stroke-dasharray="1,5" points="8,-70 8,-268 1179,-268 1179,-70 8,-70"/>
</g>
<g id="clust2" class="cluster">
<title>cluster_AppModule_declarations</title>
<polygon fill="none" stroke="#000000" points="1049,-78 1049,-130 1171,-130 1171,-78 1049,-78"/>
</g>
<g id="clust4" class="cluster">
<title>cluster_AppModule_imports</title>
<polygon fill="none" stroke="#000000" points="329,-78 329,-130 1041,-130 1041,-78 329,-78"/>
</g>
<g id="clust6" class="cluster">
<title>cluster_AppModule_bootstrap</title>
<polygon fill="none" stroke="#000000" points="583,-208 583,-260 707,-260 707,-208 583,-208"/>
</g>
<g id="clust7" class="cluster">
<title>cluster_AppModule_providers</title>
<polygon fill="none" stroke="#000000" points="16,-78 16,-130 321,-130 321,-78 16,-78"/>
</g>
<!-- AppComponent -->
<g id="node1" class="node">
<title>AppComponent</title>
<polygon fill="#ffffb3" stroke="#000000" points="1162.9399,-122 1057.0601,-122 1057.0601,-86 1162.9399,-86 1162.9399,-122"/>
<text text-anchor="middle" x="1110" y="-99.8" font-family="Times,serif" font-size="14.00" fill="#000000">AppComponent</text>
</g>
<!-- AppModule -->
<g id="node2" class="node">
<title>AppModule</title>
<polygon fill="#8dd3c7" stroke="#000000" points="686.6571,-187 683.6571,-191 662.6571,-191 659.6571,-187 603.3429,-187 603.3429,-151 686.6571,-151 686.6571,-187"/>
<text text-anchor="middle" x="645" y="-164.8" font-family="Times,serif" font-size="14.00" fill="#000000">AppModule</text>
</g>
<!-- AppComponent&#45;&gt;AppModule -->
<g id="edge1" class="edge">
<title>AppComponent&#45;&gt;AppModule</title>
<path fill="none" stroke="#000000" d="M1110,-122.0109C1110,-144.4852 1110,-180 1110,-180 1110,-180 696.6749,-180 696.6749,-180"/>
<polygon fill="#000000" stroke="#000000" points="696.6749,-176.5001 686.6749,-180 696.6748,-183.5001 696.6749,-176.5001"/>
</g>
<!-- AppComponent  -->
<g id="node9" class="node">
<title>AppComponent </title>
<polygon fill="#80b1d3" stroke="#000000" points="699.439,-252 590.561,-252 590.561,-216 699.439,-216 699.439,-252"/>
<text text-anchor="middle" x="645" y="-229.8" font-family="Times,serif" font-size="14.00" fill="#000000">AppComponent </text>
</g>
<!-- AppModule&#45;&gt;AppComponent  -->
<g id="edge8" class="edge">
<title>AppModule&#45;&gt;AppComponent </title>
<path fill="none" stroke="#000000" stroke-dasharray="1,5" d="M645,-187.1061C645,-187.1061 645,-205.991 645,-205.991"/>
<polygon fill="#000000" stroke="#000000" points="641.5001,-205.9909 645,-215.991 648.5001,-205.991 641.5001,-205.9909"/>
</g>
<!-- AboutModule -->
<g id="node3" class="node">
<title>AboutModule</title>
<polygon fill="#8dd3c7" stroke="#000000" points="1033.0481,-122 1030.0481,-126 1009.0481,-126 1006.0481,-122 938.9519,-122 938.9519,-86 1033.0481,-86 1033.0481,-122"/>
<text text-anchor="middle" x="986" y="-99.8" font-family="Times,serif" font-size="14.00" fill="#000000">AboutModule</text>
</g>
<!-- AboutModule&#45;&gt;AppModule -->
<g id="edge2" class="edge">
<title>AboutModule&#45;&gt;AppModule</title>
<path fill="none" stroke="#000000" d="M986,-122.1289C986,-142.5724 986,-173 986,-173 986,-173 696.8133,-173 696.8133,-173"/>
<polygon fill="#000000" stroke="#000000" points="696.8133,-169.5001 686.8133,-173 696.8133,-176.5001 696.8133,-169.5001"/>
</g>
<!-- ArchModule -->
<g id="node4" class="node">
<title>ArchModule</title>
<polygon fill="#8dd3c7" stroke="#000000" points="920.5328,-122 917.5328,-126 896.5328,-126 893.5328,-122 833.4672,-122 833.4672,-86 920.5328,-86 920.5328,-122"/>
<text text-anchor="middle" x="877" y="-99.8" font-family="Times,serif" font-size="14.00" fill="#000000">ArchModule</text>
</g>
<!-- ArchModule&#45;&gt;AppModule -->
<g id="edge3" class="edge">
<title>ArchModule&#45;&gt;AppModule</title>
<path fill="none" stroke="#000000" d="M877,-122.2667C877,-140.5552 877,-166 877,-166 877,-166 696.7449,-166 696.7449,-166"/>
<polygon fill="#000000" stroke="#000000" points="696.7449,-162.5001 686.7449,-166 696.7449,-169.5001 696.7449,-162.5001"/>
</g>
<!-- HomeModule -->
<g id="node5" class="node">
<title>HomeModule</title>
<polygon fill="#8dd3c7" stroke="#000000" points="814.7619,-122 811.7619,-126 790.7619,-126 787.7619,-122 721.2381,-122 721.2381,-86 814.7619,-86 814.7619,-122"/>
<text text-anchor="middle" x="768" y="-99.8" font-family="Times,serif" font-size="14.00" fill="#000000">HomeModule</text>
</g>
<!-- HomeModule&#45;&gt;AppModule -->
<g id="edge4" class="edge">
<title>HomeModule&#45;&gt;AppModule</title>
<path fill="none" stroke="#000000" d="M768,-122.0091C768,-138.0494 768,-159 768,-159 768,-159 696.9856,-159 696.9856,-159"/>
<polygon fill="#000000" stroke="#000000" points="696.9856,-155.5001 686.9856,-159 696.9856,-162.5001 696.9856,-155.5001"/>
</g>
<!-- NotFoundModule -->
<g id="node6" class="node">
<title>NotFoundModule</title>
<polygon fill="#8dd3c7" stroke="#000000" points="703.3301,-122 700.3301,-126 679.3301,-126 676.3301,-122 586.6699,-122 586.6699,-86 703.3301,-86 703.3301,-122"/>
<text text-anchor="middle" x="645" y="-99.8" font-family="Times,serif" font-size="14.00" fill="#000000">NotFoundModule</text>
</g>
<!-- NotFoundModule&#45;&gt;AppModule -->
<g id="edge5" class="edge">
<title>NotFoundModule&#45;&gt;AppModule</title>
<path fill="none" stroke="#000000" d="M645,-122.1061C645,-122.1061 645,-140.991 645,-140.991"/>
<polygon fill="#000000" stroke="#000000" points="641.5001,-140.9909 645,-150.991 648.5001,-140.991 641.5001,-140.9909"/>
</g>
<!-- RootStoreModule -->
<g id="node7" class="node">
<title>RootStoreModule</title>
<polygon fill="#8dd3c7" stroke="#000000" points="569.3259,-122 566.3259,-126 545.3259,-126 542.3259,-122 452.6741,-122 452.6741,-86 569.3259,-86 569.3259,-122"/>
<text text-anchor="middle" x="511" y="-99.8" font-family="Times,serif" font-size="14.00" fill="#000000">RootStoreModule</text>
</g>
<!-- RootStoreModule&#45;&gt;AppModule -->
<g id="edge6" class="edge">
<title>RootStoreModule&#45;&gt;AppModule</title>
<path fill="none" stroke="#000000" d="M511,-122.0091C511,-138.0494 511,-159 511,-159 511,-159 593.3361,-159 593.3361,-159"/>
<polygon fill="#000000" stroke="#000000" points="593.3361,-162.5001 603.3361,-159 593.3361,-155.5001 593.3361,-162.5001"/>
</g>
<!-- SharedModule -->
<g id="node8" class="node">
<title>SharedModule</title>
<polygon fill="#8dd3c7" stroke="#000000" points="435.4231,-122 432.4231,-126 411.4231,-126 408.4231,-122 336.5769,-122 336.5769,-86 435.4231,-86 435.4231,-122"/>
<text text-anchor="middle" x="386" y="-99.8" font-family="Times,serif" font-size="14.00" fill="#000000">SharedModule</text>
</g>
<!-- SharedModule&#45;&gt;AppModule -->
<g id="edge7" class="edge">
<title>SharedModule&#45;&gt;AppModule</title>
<path fill="none" stroke="#000000" d="M386,-122.2667C386,-140.5552 386,-166 386,-166 386,-166 593.0993,-166 593.0993,-166"/>
<polygon fill="#000000" stroke="#000000" points="593.0994,-169.5001 603.0993,-166 593.0993,-162.5001 593.0994,-169.5001"/>
</g>
<!-- DialogService -->
<g id="node10" class="node">
<title>DialogService</title>
<ellipse fill="#fdb462" stroke="#000000" cx="247" cy="-104" rx="66.0492" ry="18"/>
<text text-anchor="middle" x="247" y="-99.8" font-family="Times,serif" font-size="14.00" fill="#000000">DialogService</text>
</g>
<!-- DialogService&#45;&gt;AppModule -->
<g id="edge9" class="edge">
<title>DialogService&#45;&gt;AppModule</title>
<path fill="none" stroke="#000000" d="M247,-122.1289C247,-142.5724 247,-173 247,-173 247,-173 593.1593,-173 593.1593,-173"/>
<polygon fill="#000000" stroke="#000000" points="593.1593,-176.5001 603.1593,-173 593.1592,-169.5001 593.1593,-176.5001"/>
</g>
<!-- StorageService -->
<g id="node11" class="node">
<title>StorageService</title>
<ellipse fill="#fdb462" stroke="#000000" cx="93" cy="-104" rx="69.4781" ry="18"/>
<text text-anchor="middle" x="93" y="-99.8" font-family="Times,serif" font-size="14.00" fill="#000000">StorageService</text>
</g>
<!-- StorageService&#45;&gt;AppModule -->
<g id="edge10" class="edge">
<title>StorageService&#45;&gt;AppModule</title>
<path fill="none" stroke="#000000" d="M93,-122.0109C93,-144.4852 93,-180 93,-180 93,-180 593.0572,-180 593.0572,-180"/>
<polygon fill="#000000" stroke="#000000" points="593.0572,-183.5001 603.0572,-180 593.0572,-176.5001 593.0572,-183.5001"/>
</g>
</g>
</svg>
