<?xml version="1.0" encoding="UTF-8" standalone="no"?>
<!DOCTYPE svg PUBLIC "-//W3C//DTD SVG 1.1//EN"
 "http://www.w3.org/Graphics/SVG/1.1/DTD/svg11.dtd">
<!-- Generated by graphviz version 2.40.1 (20161225.0304)
 -->
<!-- Title: dependencies Pages: 1 -->
<svg width="866pt" height="284pt"
 viewBox="0.00 0.00 866.00 284.00" xmlns="http://www.w3.org/2000/svg" xmlns:xlink="http://www.w3.org/1999/xlink">
<g id="graph0" class="graph" transform="scale(1 1) rotate(0) translate(4 280)">
<title>dependencies</title>
<polygon fill="#ffffff" stroke="transparent" points="-4,4 -4,-280 862,-280 862,4 -4,4"/>
<text text-anchor="start" x="408.0091" y="-42.4" font-family="sans-serif" font-weight="bold" font-size="14.00" fill="#000000">Legend</text>
<polygon fill="#ffffb3" stroke="transparent" points="195,-10 195,-30 215,-30 215,-10 195,-10"/>
<text text-anchor="start" x="218.629" y="-15.4" font-family="sans-serif" font-size="14.00" fill="#000000"> &#160;Declarations</text>
<polygon fill="#8dd3c7" stroke="transparent" points="308,-10 308,-30 328,-30 328,-10 308,-10"/>
<text text-anchor="start" x="331.7251" y="-15.4" font-family="sans-serif" font-size="14.00" fill="#000000"> &#160;Module</text>
<polygon fill="#80b1d3" stroke="transparent" points="394,-10 394,-30 414,-30 414,-10 394,-10"/>
<text text-anchor="start" x="417.7812" y="-15.4" font-family="sans-serif" font-size="14.00" fill="#000000"> &#160;Bootstrap</text>
<polygon fill="#fdb462" stroke="transparent" points="491,-10 491,-30 511,-30 511,-10 491,-10"/>
<text text-anchor="start" x="514.6732" y="-15.4" font-family="sans-serif" font-size="14.00" fill="#000000"> &#160;Providers</text>
<polygon fill="#fb8072" stroke="transparent" points="587,-10 587,-30 607,-30 607,-10 587,-10"/>
<text text-anchor="start" x="610.7258" y="-15.4" font-family="sans-serif" font-size="14.00" fill="#000000"> &#160;Exports</text>
<g id="clust1" class="cluster">
<title>cluster_LayoutModule</title>
<polygon fill="none" stroke="#000000" stroke-dasharray="1,5" points="8,-70 8,-268 850,-268 850,-70 8,-70"/>
</g>
<g id="clust2" class="cluster">
<title>cluster_LayoutModule_declarations</title>
<polygon fill="none" stroke="#000000" points="420,-78 420,-130 842,-130 842,-78 420,-78"/>
</g>
<g id="clust5" class="cluster">
<title>cluster_LayoutModule_imports</title>
<polygon fill="none" stroke="#000000" points="174,-78 174,-130 412,-130 412,-78 174,-78"/>
</g>
<g id="clust6" class="cluster">
<title>cluster_LayoutModule_exports</title>
<polygon fill="none" stroke="#000000" points="256,-208 256,-260 452,-260 452,-208 256,-208"/>
</g>
<g id="clust8" class="cluster">
<title>cluster_LayoutModule_providers</title>
<polygon fill="none" stroke="#000000" points="16,-78 16,-130 166,-130 166,-78 16,-78"/>
</g>
<!-- LayoutContainerComponent -->
<g id="node1" class="node">
<title>LayoutContainerComponent</title>
<polygon fill="#ffffb3" stroke="#000000" points="834.1979,-122 657.8021,-122 657.8021,-86 834.1979,-86 834.1979,-122"/>
<text text-anchor="middle" x="746" y="-99.8" font-family="Times,serif" font-size="14.00" fill="#000000">LayoutContainerComponent</text>
</g>
<!-- LayoutModule -->
<g id="node3" class="node">
<title>LayoutModule</title>
<polygon fill="#8dd3c7" stroke="#000000" points="403.7078,-187 400.7078,-191 379.7078,-191 376.7078,-187 304.2922,-187 304.2922,-151 403.7078,-151 403.7078,-187"/>
<text text-anchor="middle" x="354" y="-164.8" font-family="Times,serif" font-size="14.00" fill="#000000">LayoutModule</text>
</g>
<!-- LayoutContainerComponent&#45;&gt;LayoutModule -->
<g id="edge1" class="edge">
<title>LayoutContainerComponent&#45;&gt;LayoutModule</title>
<path fill="none" stroke="#000000" d="M746,-122.2843C746,-143.3211 746,-175 746,-175 746,-175 413.6471,-175 413.6471,-175"/>
<polygon fill="#000000" stroke="#000000" points="413.6471,-171.5001 403.6471,-175 413.647,-178.5001 413.6471,-171.5001"/>
</g>
<!-- SimpleLayoutPresenterComponent -->
<g id="node2" class="node">
<title>SimpleLayoutPresenterComponent</title>
<polygon fill="#ffffb3" stroke="#000000" points="640.2422,-122 427.7578,-122 427.7578,-86 640.2422,-86 640.2422,-122"/>
<text text-anchor="middle" x="534" y="-99.8" font-family="Times,serif" font-size="14.00" fill="#000000">SimpleLayoutPresenterComponent</text>
</g>
<!-- SimpleLayoutPresenterComponent&#45;&gt;LayoutModule -->
<g id="edge2" class="edge">
<title>SimpleLayoutPresenterComponent&#45;&gt;LayoutModule</title>
<path fill="none" stroke="#000000" d="M435.7389,-122.0225C435.7389,-139.3734 435.7389,-163 435.7389,-163 435.7389,-163 413.9025,-163 413.9025,-163"/>
<polygon fill="#000000" stroke="#000000" points="413.9025,-159.5001 403.9025,-163 413.9024,-166.5001 413.9025,-159.5001"/>
</g>
<!-- LayoutContainerComponent  -->
<g id="node6" class="node">
<title>LayoutContainerComponent </title>
<polygon fill="#fb8072" stroke="#000000" points="443.6981,-252 264.3019,-252 264.3019,-216 443.6981,-216 443.6981,-252"/>
<text text-anchor="middle" x="354" y="-229.8" font-family="Times,serif" font-size="14.00" fill="#000000">LayoutContainerComponent </text>
</g>
<!-- LayoutModule&#45;&gt;LayoutContainerComponent  -->
<g id="edge5" class="edge">
<title>LayoutModule&#45;&gt;LayoutContainerComponent </title>
<path fill="none" stroke="#000000" stroke-dasharray="5,2" d="M354,-187.1061C354,-187.1061 354,-205.991 354,-205.991"/>
<polygon fill="#000000" stroke="#000000" points="350.5001,-205.9909 354,-215.991 357.5001,-205.991 350.5001,-205.9909"/>
</g>
<!-- HeaderModule -->
<g id="node4" class="node">
<title>HeaderModule</title>
<polygon fill="#8dd3c7" stroke="#000000" points="403.9608,-122 400.9608,-126 379.9608,-126 376.9608,-122 304.0392,-122 304.0392,-86 403.9608,-86 403.9608,-122"/>
<text text-anchor="middle" x="354" y="-99.8" font-family="Times,serif" font-size="14.00" fill="#000000">HeaderModule</text>
</g>
<!-- HeaderModule&#45;&gt;LayoutModule -->
<g id="edge3" class="edge">
<title>HeaderModule&#45;&gt;LayoutModule</title>
<path fill="none" stroke="#000000" d="M354,-122.1061C354,-122.1061 354,-140.991 354,-140.991"/>
<polygon fill="#000000" stroke="#000000" points="350.5001,-140.9909 354,-150.991 357.5001,-140.991 350.5001,-140.9909"/>
</g>
<!-- RoutingModule -->
<g id="node5" class="node">
<title>RoutingModule</title>
<polygon fill="#8dd3c7" stroke="#000000" points="286.1681,-122 283.1681,-126 262.1681,-126 259.1681,-122 181.8319,-122 181.8319,-86 286.1681,-86 286.1681,-122"/>
<text text-anchor="middle" x="234" y="-99.8" font-family="Times,serif" font-size="14.00" fill="#000000">RoutingModule</text>
</g>
<!-- RoutingModule&#45;&gt;LayoutModule -->
<g id="edge4" class="edge">
<title>RoutingModule&#45;&gt;LayoutModule</title>
<path fill="none" stroke="#000000" d="M275.2425,-122.0225C275.2425,-139.3734 275.2425,-163 275.2425,-163 275.2425,-163 294.1216,-163 294.1216,-163"/>
<polygon fill="#000000" stroke="#000000" points="294.1217,-166.5001 304.1216,-163 294.1216,-159.5001 294.1217,-166.5001"/>
</g>
<!-- LayoutService -->
<g id="node7" class="node">
<title>LayoutService</title>
<ellipse fill="#fdb462" stroke="#000000" cx="91" cy="-104" rx="67.1946" ry="18"/>
<text text-anchor="middle" x="91" y="-99.8" font-family="Times,serif" font-size="14.00" fill="#000000">LayoutService</text>
</g>
<!-- LayoutService&#45;&gt;LayoutModule -->
<g id="edge6" class="edge">
<title>LayoutService&#45;&gt;LayoutModule</title>
<path fill="none" stroke="#000000" d="M91,-122.2843C91,-143.3211 91,-175 91,-175 91,-175 294.2225,-175 294.2225,-175"/>
<polygon fill="#000000" stroke="#000000" points="294.2226,-178.5001 304.2225,-175 294.2225,-171.5001 294.2226,-178.5001"/>
</g>
</g>
</svg>
