<?xml version="1.0" encoding="UTF-8" standalone="no"?>
<!DOCTYPE svg PUBLIC "-//W3C//DTD SVG 1.1//EN"
 "http://www.w3.org/Graphics/SVG/1.1/DTD/svg11.dtd">
<!-- Generated by graphviz version 2.40.1 (20161225.0304)
 -->
<!-- Title: dependencies Pages: 1 -->
<svg width="2027pt" height="569pt"
 viewBox="0.00 0.00 2027.00 569.00" xmlns="http://www.w3.org/2000/svg" xmlns:xlink="http://www.w3.org/1999/xlink">
<g id="graph0" class="graph" transform="scale(1 1) rotate(0) translate(4 565)">
<title>dependencies</title>
<polygon fill="#ffffff" stroke="transparent" points="-4,4 -4,-565 2023,-565 2023,4 -4,4"/>
<text text-anchor="start" x="988.5091" y="-42.4" font-family="sans-serif" font-weight="bold" font-size="14.00" fill="#000000">Legend</text>
<polygon fill="#ffffb3" stroke="transparent" points="775.5,-10 775.5,-30 795.5,-30 795.5,-10 775.5,-10"/>
<text text-anchor="start" x="799.129" y="-15.4" font-family="sans-serif" font-size="14.00" fill="#000000"> &#160;Declarations</text>
<polygon fill="#8dd3c7" stroke="transparent" points="888.5,-10 888.5,-30 908.5,-30 908.5,-10 888.5,-10"/>
<text text-anchor="start" x="912.2251" y="-15.4" font-family="sans-serif" font-size="14.00" fill="#000000"> &#160;Module</text>
<polygon fill="#80b1d3" stroke="transparent" points="974.5,-10 974.5,-30 994.5,-30 994.5,-10 974.5,-10"/>
<text text-anchor="start" x="998.2812" y="-15.4" font-family="sans-serif" font-size="14.00" fill="#000000"> &#160;Bootstrap</text>
<polygon fill="#fdb462" stroke="transparent" points="1071.5,-10 1071.5,-30 1091.5,-30 1091.5,-10 1071.5,-10"/>
<text text-anchor="start" x="1095.1732" y="-15.4" font-family="sans-serif" font-size="14.00" fill="#000000"> &#160;Providers</text>
<polygon fill="#fb8072" stroke="transparent" points="1167.5,-10 1167.5,-30 1187.5,-30 1187.5,-10 1167.5,-10"/>
<text text-anchor="start" x="1191.2258" y="-15.4" font-family="sans-serif" font-size="14.00" fill="#000000"> &#160;Exports</text>
<g id="clust1" class="cluster">
<title>cluster_AboutModule</title>
<polygon fill="none" stroke="#000000" stroke-dasharray="1,5" points="1158,-279 1158,-415 1456,-415 1456,-279 1158,-279"/>
</g>
<g id="clust2" class="cluster">
<title>cluster_AboutModule_declarations</title>
<polygon fill="none" stroke="#000000" points="1166,-287 1166,-339 1326,-339 1326,-287 1166,-287"/>
</g>
<g id="clust4" class="cluster">
<title>cluster_AboutModule_imports</title>
<polygon fill="none" stroke="#000000" points="1334,-287 1334,-339 1448,-339 1448,-287 1334,-287"/>
</g>
<g id="clust8" class="cluster">
<title>cluster_AppModule</title>
<polygon fill="none" stroke="#000000" stroke-dasharray="1,5" points="207,-355 207,-553 1150,-553 1150,-355 207,-355"/>
</g>
<g id="clust9" class="cluster">
<title>cluster_AppModule_declarations</title>
<polygon fill="none" stroke="#000000" points="1020,-363 1020,-415 1142,-415 1142,-363 1020,-363"/>
</g>
<g id="clust11" class="cluster">
<title>cluster_AppModule_imports</title>
<polygon fill="none" stroke="#000000" points="528,-363 528,-415 1012,-415 1012,-363 528,-363"/>
</g>
<g id="clust13" class="cluster">
<title>cluster_AppModule_bootstrap</title>
<polygon fill="none" stroke="#000000" points="750,-493 750,-545 874,-545 874,-493 750,-493"/>
</g>
<g id="clust14" class="cluster">
<title>cluster_AppModule_providers</title>
<polygon fill="none" stroke="#000000" points="215,-363 215,-415 520,-415 520,-363 215,-363"/>
</g>
<g id="clust15" class="cluster">
<title>cluster_ArchModule</title>
<polygon fill="none" stroke="#000000" stroke-dasharray="1,5" points="8,-279 8,-347 158,-347 158,-279 8,-279"/>
</g>
<g id="clust20" class="cluster">
<title>cluster_ArchModule_providers</title>
<polygon fill="none" stroke="#000000" points="16,-287 16,-339 150,-339 150,-287 16,-287"/>
</g>
<g id="clust21" class="cluster">
<title>cluster_HeaderModule</title>
<polygon fill="none" stroke="#000000" stroke-dasharray="1,5" points="1158,-70 1158,-271 2011,-271 2011,-70 1158,-70"/>
</g>
<g id="clust22" class="cluster">
<title>cluster_HeaderModule_declarations</title>
<polygon fill="none" stroke="#000000" points="1326,-78 1326,-130 1750,-130 1750,-78 1326,-78"/>
</g>
<g id="clust25" class="cluster">
<title>cluster_HeaderModule_imports</title>
<polygon fill="none" stroke="#000000" points="1758,-78 1758,-130 2003,-130 2003,-78 1758,-78"/>
</g>
<g id="clust26" class="cluster">
<title>cluster_HeaderModule_exports</title>
<polygon fill="none" stroke="#000000" points="1206,-211 1206,-263 1402,-263 1402,-211 1206,-211"/>
</g>
<g id="clust28" class="cluster">
<title>cluster_HeaderModule_providers</title>
<polygon fill="none" stroke="#000000" points="1166,-78 1166,-130 1318,-130 1318,-78 1166,-78"/>
</g>
<g id="clust29" class="cluster">
<title>cluster_HomeModule</title>
<polygon fill="none" stroke="#000000" stroke-dasharray="1,5" points="166,-279 166,-347 340,-347 340,-279 166,-279"/>
</g>
<g id="clust30" class="cluster">
<title>cluster_HomeModule_declarations</title>
<polygon fill="none" stroke="#000000" points="174,-287 174,-339 332,-339 332,-287 174,-287"/>
</g>
<g id="clust36" class="cluster">
<title>cluster_LayoutModule</title>
<polygon fill="none" stroke="#000000" stroke-dasharray="1,5" points="554,-138 554,-347 1150,-347 1150,-138 554,-138"/>
</g>
<g id="clust37" class="cluster">
<title>cluster_LayoutModule_declarations</title>
<polygon fill="none" stroke="#000000" points="720,-146 720,-198 1142,-198 1142,-146 720,-146"/>
</g>
<g id="clust41" class="cluster">
<title>cluster_LayoutModule_exports</title>
<polygon fill="none" stroke="#000000" points="938,-287 938,-339 1134,-339 1134,-287 938,-287"/>
</g>
<g id="clust43" class="cluster">
<title>cluster_LayoutModule_providers</title>
<polygon fill="none" stroke="#000000" points="562,-146 562,-198 712,-198 712,-146 562,-146"/>
</g>
<g id="clust50" class="cluster">
<title>cluster_NotFoundModule</title>
<polygon fill="none" stroke="#000000" stroke-dasharray="1,5" points="348,-279 348,-347 546,-347 546,-279 348,-279"/>
</g>
<g id="clust51" class="cluster">
<title>cluster_NotFoundModule_declarations</title>
<polygon fill="none" stroke="#000000" points="356,-287 356,-339 538,-339 538,-287 356,-287"/>
</g>
<g id="clust69" class="cluster">
<title>cluster_SharedModule</title>
<polygon fill="none" stroke="#000000" stroke-dasharray="1,5" points="1464,-355 1464,-423 1975,-423 1975,-355 1464,-355"/>
</g>
<g id="clust72" class="cluster">
<title>cluster_SharedModule_exports</title>
<polygon fill="none" stroke="#000000" points="1472,-363 1472,-415 1967,-415 1967,-363 1472,-363"/>
</g>
<!-- AboutPageComponent -->
<g id="node1" class="node">
<title>AboutPageComponent</title>
<polygon fill="#ffffb3" stroke="#000000" points="1317.5421,-331 1174.4579,-331 1174.4579,-295 1317.5421,-295 1317.5421,-331"/>
<text text-anchor="middle" x="1246" y="-308.8" font-family="Times,serif" font-size="14.00" fill="#000000">AboutPageComponent</text>
</g>
<!-- AboutModule -->
<g id="node2" class="node">
<title>AboutModule</title>
<polygon fill="#8dd3c7" stroke="#000000" points="1293.0481,-407 1290.0481,-411 1269.0481,-411 1266.0481,-407 1198.9519,-407 1198.9519,-371 1293.0481,-371 1293.0481,-407"/>
<text text-anchor="middle" x="1246" y="-384.8" font-family="Times,serif" font-size="14.00" fill="#000000">AboutModule</text>
</g>
<!-- AboutPageComponent&#45;&gt;AboutModule -->
<g id="edge1" class="edge">
<title>AboutPageComponent&#45;&gt;AboutModule</title>
<path fill="none" stroke="#000000" d="M1246,-331.0109C1246,-331.0109 1246,-360.855 1246,-360.855"/>
<polygon fill="#000000" stroke="#000000" points="1242.5001,-360.8549 1246,-370.855 1249.5001,-360.855 1242.5001,-360.8549"/>
</g>
<!-- AppModule -->
<g id="node5" class="node">
<title>AppModule</title>
<polygon fill="#8dd3c7" stroke="#000000" points="853.6571,-472 850.6571,-476 829.6571,-476 826.6571,-472 770.3429,-472 770.3429,-436 853.6571,-436 853.6571,-472"/>
<text text-anchor="middle" x="812" y="-449.8" font-family="Times,serif" font-size="14.00" fill="#000000">AppModule</text>
</g>
<!-- AboutModule&#45;&gt;AppModule -->
<g id="edge4" class="edge">
<title>AboutModule&#45;&gt;AppModule</title>
<path fill="none" stroke="#000000" d="M1246,-407.1289C1246,-427.5724 1246,-458 1246,-458 1246,-458 864.0081,-458 864.0081,-458"/>
<polygon fill="#000000" stroke="#000000" points="864.0081,-454.5001 854.0081,-458 864.0081,-461.5001 864.0081,-454.5001"/>
</g>
<!-- SharedModule -->
<g id="node3" class="node">
<title>SharedModule</title>
<polygon fill="#8dd3c7" stroke="#000000" points="1440.4231,-331 1437.4231,-335 1416.4231,-335 1413.4231,-331 1341.5769,-331 1341.5769,-295 1440.4231,-295 1440.4231,-331"/>
<text text-anchor="middle" x="1391" y="-308.8" font-family="Times,serif" font-size="14.00" fill="#000000">SharedModule</text>
</g>
<!-- SharedModule&#45;&gt;AboutModule -->
<g id="edge2" class="edge">
<title>SharedModule&#45;&gt;AboutModule</title>
<path fill="none" stroke="#000000" d="M1400.8422,-331.0109C1400.8422,-353.4852 1400.8422,-389 1400.8422,-389 1400.8422,-389 1303.2991,-389 1303.2991,-389"/>
<polygon fill="#000000" stroke="#000000" points="1303.2992,-385.5001 1293.2991,-389 1303.2991,-392.5001 1303.2992,-385.5001"/>
</g>
<!-- SharedModule&#45;&gt;AppModule -->
<g id="edge9" class="edge">
<title>SharedModule&#45;&gt;AppModule</title>
<path fill="none" stroke="#000000" d="M1420.5267,-331.0333C1420.5267,-371.2965 1420.5267,-465 1420.5267,-465 1420.5267,-465 863.8265,-465 863.8265,-465"/>
<polygon fill="#000000" stroke="#000000" points="863.8265,-461.5001 853.8265,-465 863.8265,-468.5001 863.8265,-461.5001"/>
</g>
<!-- HomeModule -->
<g id="node7" class="node">
<title>HomeModule</title>
<polygon fill="#8dd3c7" stroke="#000000" points="735.7619,-407 732.7619,-411 711.7619,-411 708.7619,-407 642.2381,-407 642.2381,-371 735.7619,-371 735.7619,-407"/>
<text text-anchor="middle" x="689" y="-384.8" font-family="Times,serif" font-size="14.00" fill="#000000">HomeModule</text>
</g>
<!-- SharedModule&#45;&gt;HomeModule -->
<g id="edge21" class="edge">
<title>SharedModule&#45;&gt;HomeModule</title>
<path fill="none" stroke="#000000" d="M1361.4733,-331.0579C1361.4733,-335.4945 1361.4733,-339 1361.4733,-339 1361.4733,-339 731.891,-339 731.891,-339 731.891,-339 731.891,-360.9489 731.891,-360.9489"/>
<polygon fill="#000000" stroke="#000000" points="728.391,-360.9488 731.891,-370.9489 735.391,-360.9489 728.391,-360.9488"/>
</g>
<!-- NotFoundModule -->
<g id="node8" class="node">
<title>NotFoundModule</title>
<polygon fill="#8dd3c7" stroke="#000000" points="870.3301,-407 867.3301,-411 846.3301,-411 843.3301,-407 753.6699,-407 753.6699,-371 870.3301,-371 870.3301,-407"/>
<text text-anchor="middle" x="812" y="-384.8" font-family="Times,serif" font-size="14.00" fill="#000000">NotFoundModule</text>
</g>
<!-- SharedModule&#45;&gt;NotFoundModule -->
<g id="edge29" class="edge">
<title>SharedModule&#45;&gt;NotFoundModule</title>
<path fill="none" stroke="#000000" d="M1381.1578,-331.1944C1381.1578,-339.2782 1381.1578,-347 1381.1578,-347 1381.1578,-347 831.3883,-347 831.3883,-347 831.3883,-347 831.3883,-360.9445 831.3883,-360.9445"/>
<polygon fill="#000000" stroke="#000000" points="827.8884,-360.9444 831.3883,-370.9445 834.8884,-360.9445 827.8884,-360.9444"/>
</g>
<!-- HeaderModule  -->
<g id="node28" class="node">
<title>HeaderModule </title>
<polygon fill="#fb8072" stroke="#000000" points="1832.9618,-407 1729.0382,-407 1729.0382,-371 1832.9618,-371 1832.9618,-407"/>
<text text-anchor="middle" x="1781" y="-384.8" font-family="Times,serif" font-size="14.00" fill="#000000">HeaderModule </text>
</g>
<!-- SharedModule&#45;&gt;HeaderModule  -->
<g id="edge34" class="edge">
<title>SharedModule&#45;&gt;HeaderModule </title>
<path fill="none" stroke="#000000" stroke-dasharray="5,2" d="M1440.3597,-316C1535.6194,-316 1735.5086,-316 1735.5086,-316 1735.5086,-316 1735.5086,-360.9551 1735.5086,-360.9551"/>
<polygon fill="#000000" stroke="#000000" points="1732.0087,-360.955 1735.5086,-370.9551 1739.0087,-360.9551 1732.0087,-360.955"/>
</g>
<!-- LayoutModule  -->
<g id="node29" class="node">
<title>LayoutModule </title>
<polygon fill="#fb8072" stroke="#000000" points="1711.208,-407 1608.792,-407 1608.792,-371 1711.208,-371 1711.208,-407"/>
<text text-anchor="middle" x="1660" y="-384.8" font-family="Times,serif" font-size="14.00" fill="#000000">LayoutModule </text>
</g>
<!-- SharedModule&#45;&gt;LayoutModule  -->
<g id="edge35" class="edge">
<title>SharedModule&#45;&gt;LayoutModule </title>
<path fill="none" stroke="#000000" stroke-dasharray="5,2" d="M1440.3387,-321C1517.9968,-321 1660,-321 1660,-321 1660,-321 1660,-360.7772 1660,-360.7772"/>
<polygon fill="#000000" stroke="#000000" points="1656.5001,-360.7772 1660,-370.7772 1663.5001,-360.7773 1656.5001,-360.7772"/>
</g>
<!-- MaterialModule  -->
<g id="node30" class="node">
<title>MaterialModule </title>
<polygon fill="#fb8072" stroke="#000000" points="1590.4716,-407 1479.5284,-407 1479.5284,-371 1590.4716,-371 1590.4716,-407"/>
<text text-anchor="middle" x="1535" y="-384.8" font-family="Times,serif" font-size="14.00" fill="#000000">MaterialModule </text>
</g>
<!-- SharedModule&#45;&gt;MaterialModule  -->
<g id="edge36" class="edge">
<title>SharedModule&#45;&gt;MaterialModule </title>
<path fill="none" stroke="#000000" stroke-dasharray="5,2" d="M1440.3158,-326C1467.2277,-326 1495.1201,-326 1495.1201,-326 1495.1201,-326 1495.1201,-360.7778 1495.1201,-360.7778"/>
<polygon fill="#000000" stroke="#000000" points="1491.6202,-360.7778 1495.1201,-370.7778 1498.6202,-360.7778 1491.6202,-360.7778"/>
</g>
<!-- RoutingModule  -->
<g id="node31" class="node">
<title>RoutingModule </title>
<polygon fill="#fb8072" stroke="#000000" points="1959.1677,-407 1850.8323,-407 1850.8323,-371 1959.1677,-371 1959.1677,-407"/>
<text text-anchor="middle" x="1905" y="-384.8" font-family="Times,serif" font-size="14.00" fill="#000000">RoutingModule </text>
</g>
<!-- SharedModule&#45;&gt;RoutingModule  -->
<g id="edge37" class="edge">
<title>SharedModule&#45;&gt;RoutingModule </title>
<path fill="none" stroke="#000000" stroke-dasharray="5,2" d="M1440.3705,-311C1560.9449,-311 1860.625,-311 1860.625,-311 1860.625,-311 1860.625,-360.9092 1860.625,-360.9092"/>
<polygon fill="#000000" stroke="#000000" points="1857.1251,-360.9091 1860.625,-370.9092 1864.1251,-360.9092 1857.1251,-360.9091"/>
</g>
<!-- AppComponent -->
<g id="node4" class="node">
<title>AppComponent</title>
<polygon fill="#ffffb3" stroke="#000000" points="1133.9399,-407 1028.0601,-407 1028.0601,-371 1133.9399,-371 1133.9399,-407"/>
<text text-anchor="middle" x="1081" y="-384.8" font-family="Times,serif" font-size="14.00" fill="#000000">AppComponent</text>
</g>
<!-- AppComponent&#45;&gt;AppModule -->
<g id="edge3" class="edge">
<title>AppComponent&#45;&gt;AppModule</title>
<path fill="none" stroke="#000000" d="M1081,-407.2667C1081,-425.5552 1081,-451 1081,-451 1081,-451 863.7361,-451 863.7361,-451"/>
<polygon fill="#000000" stroke="#000000" points="863.7361,-447.5001 853.7361,-451 863.7361,-454.5001 863.7361,-447.5001"/>
</g>
<!-- AppComponent  -->
<g id="node10" class="node">
<title>AppComponent </title>
<polygon fill="#80b1d3" stroke="#000000" points="866.439,-537 757.561,-537 757.561,-501 866.439,-501 866.439,-537"/>
<text text-anchor="middle" x="812" y="-514.8" font-family="Times,serif" font-size="14.00" fill="#000000">AppComponent </text>
</g>
<!-- AppModule&#45;&gt;AppComponent  -->
<g id="edge10" class="edge">
<title>AppModule&#45;&gt;AppComponent </title>
<path fill="none" stroke="#000000" stroke-dasharray="1,5" d="M812,-472.1061C812,-472.1061 812,-490.991 812,-490.991"/>
<polygon fill="#000000" stroke="#000000" points="808.5001,-490.9909 812,-500.991 815.5001,-490.991 808.5001,-490.9909"/>
</g>
<!-- ArchModule -->
<g id="node6" class="node">
<title>ArchModule</title>
<polygon fill="#8dd3c7" stroke="#000000" points="623.5328,-407 620.5328,-411 599.5328,-411 596.5328,-407 536.4672,-407 536.4672,-371 623.5328,-371 623.5328,-407"/>
<text text-anchor="middle" x="580" y="-384.8" font-family="Times,serif" font-size="14.00" fill="#000000">ArchModule</text>
</g>
<!-- ArchModule&#45;&gt;AppModule -->
<g id="edge5" class="edge">
<title>ArchModule&#45;&gt;AppModule</title>
<path fill="none" stroke="#000000" d="M580,-407.2667C580,-425.5552 580,-451 580,-451 580,-451 760.2551,-451 760.2551,-451"/>
<polygon fill="#000000" stroke="#000000" points="760.2551,-454.5001 770.2551,-451 760.2551,-447.5001 760.2551,-454.5001"/>
</g>
<!-- HomeModule&#45;&gt;AppModule -->
<g id="edge6" class="edge">
<title>HomeModule&#45;&gt;AppModule</title>
<path fill="none" stroke="#000000" d="M689,-407.0091C689,-423.0494 689,-444 689,-444 689,-444 760.0144,-444 760.0144,-444"/>
<polygon fill="#000000" stroke="#000000" points="760.0144,-447.5001 770.0144,-444 760.0144,-440.5001 760.0144,-447.5001"/>
</g>
<!-- NotFoundModule&#45;&gt;AppModule -->
<g id="edge7" class="edge">
<title>NotFoundModule&#45;&gt;AppModule</title>
<path fill="none" stroke="#000000" d="M812,-407.1061C812,-407.1061 812,-425.991 812,-425.991"/>
<polygon fill="#000000" stroke="#000000" points="808.5001,-425.9909 812,-435.991 815.5001,-425.991 808.5001,-425.9909"/>
</g>
<!-- RootStoreModule -->
<g id="node9" class="node">
<title>RootStoreModule</title>
<polygon fill="#8dd3c7" stroke="#000000" points="1004.3259,-407 1001.3259,-411 980.3259,-411 977.3259,-407 887.6741,-407 887.6741,-371 1004.3259,-371 1004.3259,-407"/>
<text text-anchor="middle" x="946" y="-384.8" font-family="Times,serif" font-size="14.00" fill="#000000">RootStoreModule</text>
</g>
<!-- RootStoreModule&#45;&gt;AppModule -->
<g id="edge8" class="edge">
<title>RootStoreModule&#45;&gt;AppModule</title>
<path fill="none" stroke="#000000" d="M946,-407.0091C946,-423.0494 946,-444 946,-444 946,-444 863.6639,-444 863.6639,-444"/>
<polygon fill="#000000" stroke="#000000" points="863.6639,-440.5001 853.6639,-444 863.6639,-447.5001 863.6639,-440.5001"/>
</g>
<!-- DialogService -->
<g id="node11" class="node">
<title>DialogService</title>
<ellipse fill="#fdb462" stroke="#000000" cx="289" cy="-389" rx="66.0492" ry="18"/>
<text text-anchor="middle" x="289" y="-384.8" font-family="Times,serif" font-size="14.00" fill="#000000">DialogService</text>
</g>
<!-- DialogService&#45;&gt;AppModule -->
<g id="edge11" class="edge">
<title>DialogService&#45;&gt;AppModule</title>
<path fill="none" stroke="#000000" d="M289,-407.0109C289,-429.4852 289,-465 289,-465 289,-465 760.0848,-465 760.0848,-465"/>
<polygon fill="#000000" stroke="#000000" points="760.0848,-468.5001 770.0848,-465 760.0848,-461.5001 760.0848,-468.5001"/>
</g>
<!-- StorageService -->
<g id="node12" class="node">
<title>StorageService</title>
<ellipse fill="#fdb462" stroke="#000000" cx="443" cy="-389" rx="69.4781" ry="18"/>
<text text-anchor="middle" x="443" y="-384.8" font-family="Times,serif" font-size="14.00" fill="#000000">StorageService</text>
</g>
<!-- StorageService&#45;&gt;AppModule -->
<g id="edge12" class="edge">
<title>StorageService&#45;&gt;AppModule</title>
<path fill="none" stroke="#000000" d="M443,-407.1289C443,-427.5724 443,-458 443,-458 443,-458 760.0303,-458 760.0303,-458"/>
<polygon fill="#000000" stroke="#000000" points="760.0303,-461.5001 770.0303,-458 760.0302,-454.5001 760.0303,-461.5001"/>
</g>
<!-- ArchService -->
<g id="node13" class="node">
<title>ArchService</title>
<ellipse fill="#fdb462" stroke="#000000" cx="83" cy="-313" rx="59.0872" ry="18"/>
<text text-anchor="middle" x="83" y="-308.8" font-family="Times,serif" font-size="14.00" fill="#000000">ArchService</text>
</g>
<!-- ArchService&#45;&gt;ArchModule -->
<g id="edge13" class="edge">
<title>ArchService&#45;&gt;ArchModule</title>
<path fill="none" stroke="#000000" d="M83,-331.0511C83,-345.373 83,-363 83,-363 83,-363 552.9435,-363 552.9435,-363 552.9435,-363 552.9435,-363.7942 552.9435,-363.7942"/>
<polygon fill="#000000" stroke="#000000" points="549.4437,-360.9421 552.9435,-370.9421 556.4437,-360.9422 549.4437,-360.9421"/>
</g>
<!-- HeaderContainerComponent -->
<g id="node14" class="node">
<title>HeaderContainerComponent</title>
<polygon fill="#ffffb3" stroke="#000000" points="1510.451,-122 1333.549,-122 1333.549,-86 1510.451,-86 1510.451,-122"/>
<text text-anchor="middle" x="1422" y="-99.8" font-family="Times,serif" font-size="14.00" fill="#000000">HeaderContainerComponent</text>
</g>
<!-- HeaderModule -->
<g id="node16" class="node">
<title>HeaderModule</title>
<polygon fill="#8dd3c7" stroke="#000000" points="1471.9608,-190 1468.9608,-194 1447.9608,-194 1444.9608,-190 1372.0392,-190 1372.0392,-154 1471.9608,-154 1471.9608,-190"/>
<text text-anchor="middle" x="1422" y="-167.8" font-family="Times,serif" font-size="14.00" fill="#000000">HeaderModule</text>
</g>
<!-- HeaderContainerComponent&#45;&gt;HeaderModule -->
<g id="edge14" class="edge">
<title>HeaderContainerComponent&#45;&gt;HeaderModule</title>
<path fill="none" stroke="#000000" d="M1422,-122.2228C1422,-122.2228 1422,-143.7269 1422,-143.7269"/>
<polygon fill="#000000" stroke="#000000" points="1418.5001,-143.7269 1422,-153.7269 1425.5001,-143.727 1418.5001,-143.7269"/>
</g>
<!-- SimpleHeaderPresenterComponent -->
<g id="node15" class="node">
<title>SimpleHeaderPresenterComponent</title>
<polygon fill="#ffffb3" stroke="#000000" points="1741.9958,-122 1528.0042,-122 1528.0042,-86 1741.9958,-86 1741.9958,-122"/>
<text text-anchor="middle" x="1635" y="-99.8" font-family="Times,serif" font-size="14.00" fill="#000000">SimpleHeaderPresenterComponent</text>
</g>
<!-- SimpleHeaderPresenterComponent&#45;&gt;HeaderModule -->
<g id="edge15" class="edge">
<title>SimpleHeaderPresenterComponent&#45;&gt;HeaderModule</title>
<path fill="none" stroke="#000000" d="M1559.2439,-122.0225C1559.2439,-139.3734 1559.2439,-163 1559.2439,-163 1559.2439,-163 1482.3252,-163 1482.3252,-163"/>
<polygon fill="#000000" stroke="#000000" points="1482.3253,-159.5001 1472.3252,-163 1482.3252,-166.5001 1482.3253,-159.5001"/>
</g>
<!-- HeaderModule&#45;&gt;SharedModule -->
<g id="edge30" class="edge">
<title>HeaderModule&#45;&gt;SharedModule</title>
<path fill="none" stroke="#000000" d="M1417.2183,-190.1446C1417.2183,-190.1446 1417.2183,-284.925 1417.2183,-284.925"/>
<polygon fill="#000000" stroke="#000000" points="1413.7184,-284.925 1417.2183,-294.925 1420.7184,-284.925 1413.7184,-284.925"/>
</g>
<!-- HeaderContainerComponent  -->
<g id="node19" class="node">
<title>HeaderContainerComponent </title>
<polygon fill="#fb8072" stroke="#000000" points="1394.4516,-255 1213.5484,-255 1213.5484,-219 1394.4516,-219 1394.4516,-255"/>
<text text-anchor="middle" x="1304" y="-232.8" font-family="Times,serif" font-size="14.00" fill="#000000">HeaderContainerComponent </text>
</g>
<!-- HeaderModule&#45;&gt;HeaderContainerComponent  -->
<g id="edge18" class="edge">
<title>HeaderModule&#45;&gt;HeaderContainerComponent </title>
<path fill="none" stroke="#000000" stroke-dasharray="5,2" d="M1383.1226,-190.1061C1383.1226,-190.1061 1383.1226,-208.991 1383.1226,-208.991"/>
<polygon fill="#000000" stroke="#000000" points="1379.6226,-208.9909 1383.1226,-218.991 1386.6226,-208.991 1379.6226,-208.9909"/>
</g>
<!-- LayoutModule -->
<g id="node24" class="node">
<title>LayoutModule</title>
<polygon fill="#8dd3c7" stroke="#000000" points="1085.7078,-255 1082.7078,-259 1061.7078,-259 1058.7078,-255 986.2922,-255 986.2922,-219 1085.7078,-219 1085.7078,-255"/>
<text text-anchor="middle" x="1036" y="-232.8" font-family="Times,serif" font-size="14.00" fill="#000000">LayoutModule</text>
</g>
<!-- HeaderModule&#45;&gt;LayoutModule -->
<g id="edge24" class="edge">
<title>HeaderModule&#45;&gt;LayoutModule</title>
<path fill="none" stroke="#000000" d="M1371.9648,-178C1304.8499,-178 1194.0019,-178 1194.0019,-178 1194.0019,-178 1194.0019,-237 1194.0019,-237 1194.0019,-237 1095.9928,-237 1095.9928,-237"/>
<polygon fill="#000000" stroke="#000000" points="1095.9928,-233.5001 1085.9928,-237 1095.9928,-240.5001 1095.9928,-233.5001"/>
</g>
<!-- MaterialModule -->
<g id="node17" class="node">
<title>MaterialModule</title>
<polygon fill="#8dd3c7" stroke="#000000" points="1995.4706,-122 1992.4706,-126 1971.4706,-126 1968.4706,-122 1888.5294,-122 1888.5294,-86 1995.4706,-86 1995.4706,-122"/>
<text text-anchor="middle" x="1942" y="-99.8" font-family="Times,serif" font-size="14.00" fill="#000000">MaterialModule</text>
</g>
<!-- MaterialModule&#45;&gt;SharedModule -->
<g id="edge32" class="edge">
<title>MaterialModule&#45;&gt;SharedModule</title>
<path fill="none" stroke="#000000" d="M1935.5608,-122.2824C1935.5608,-172.0066 1935.5608,-306 1935.5608,-306 1935.5608,-306 1450.2866,-306 1450.2866,-306"/>
<polygon fill="#000000" stroke="#000000" points="1450.2866,-302.5001 1440.2866,-306 1450.2866,-309.5001 1450.2866,-302.5001"/>
</g>
<!-- MaterialModule&#45;&gt;HeaderModule -->
<g id="edge16" class="edge">
<title>MaterialModule&#45;&gt;HeaderModule</title>
<path fill="none" stroke="#000000" d="M1912.0377,-122.2479C1912.0377,-145.0179 1912.0377,-181 1912.0377,-181 1912.0377,-181 1482.1397,-181 1482.1397,-181"/>
<polygon fill="#000000" stroke="#000000" points="1482.1398,-177.5001 1472.1397,-181 1482.1397,-184.5001 1482.1398,-177.5001"/>
</g>
<!-- RoutingModule -->
<g id="node18" class="node">
<title>RoutingModule</title>
<polygon fill="#8dd3c7" stroke="#000000" points="1870.1681,-122 1867.1681,-126 1846.1681,-126 1843.1681,-122 1765.8319,-122 1765.8319,-86 1870.1681,-86 1870.1681,-122"/>
<text text-anchor="middle" x="1818" y="-99.8" font-family="Times,serif" font-size="14.00" fill="#000000">RoutingModule</text>
</g>
<!-- RoutingModule&#45;&gt;SharedModule -->
<g id="edge33" class="edge">
<title>RoutingModule&#45;&gt;SharedModule</title>
<path fill="none" stroke="#000000" d="M1815.9644,-122.1802C1815.9644,-170.9492 1815.9644,-301 1815.9644,-301 1815.9644,-301 1450.5805,-301 1450.5805,-301"/>
<polygon fill="#000000" stroke="#000000" points="1450.5805,-297.5001 1440.5805,-301 1450.5805,-304.5001 1450.5805,-297.5001"/>
</g>
<!-- RoutingModule&#45;&gt;HeaderModule -->
<g id="edge17" class="edge">
<title>RoutingModule&#45;&gt;HeaderModule</title>
<path fill="none" stroke="#000000" d="M1782.4323,-122.2228C1782.4323,-142.3652 1782.4323,-172 1782.4323,-172 1782.4323,-172 1482.1166,-172 1482.1166,-172"/>
<polygon fill="#000000" stroke="#000000" points="1482.1166,-168.5001 1472.1166,-172 1482.1165,-175.5001 1482.1166,-168.5001"/>
</g>
<!-- RoutingModule&#45;&gt;LayoutModule -->
<g id="edge25" class="edge">
<title>RoutingModule&#45;&gt;LayoutModule</title>
<path fill="none" stroke="#000000" d="M1799.1983,-122.0568C1799.1983,-151.108 1799.1983,-205 1799.1983,-205 1799.1983,-205 1052.5346,-205 1052.5346,-205 1052.5346,-205 1052.5346,-208.7566 1052.5346,-208.7566"/>
<polygon fill="#000000" stroke="#000000" points="1049.0347,-208.7566 1052.5346,-218.7566 1056.0347,-208.7566 1049.0347,-208.7566"/>
</g>
<!-- HeaderService -->
<g id="node20" class="node">
<title>HeaderService</title>
<ellipse fill="#fdb462" stroke="#000000" cx="1242" cy="-104" rx="67.7336" ry="18"/>
<text text-anchor="middle" x="1242" y="-99.8" font-family="Times,serif" font-size="14.00" fill="#000000">HeaderService</text>
</g>
<!-- HeaderService&#45;&gt;HeaderModule -->
<g id="edge19" class="edge">
<title>HeaderService&#45;&gt;HeaderModule</title>
<path fill="none" stroke="#000000" d="M1261.8206,-121.2705C1261.8206,-139.6158 1261.8206,-166 1261.8206,-166 1261.8206,-166 1361.7577,-166 1361.7577,-166"/>
<polygon fill="#000000" stroke="#000000" points="1361.7578,-169.5001 1371.7577,-166 1361.7577,-162.5001 1361.7578,-169.5001"/>
</g>
<!-- HomePageComponent -->
<g id="node21" class="node">
<title>HomePageComponent</title>
<polygon fill="#ffffb3" stroke="#000000" points="324.2562,-331 181.7438,-331 181.7438,-295 324.2562,-295 324.2562,-331"/>
<text text-anchor="middle" x="253" y="-308.8" font-family="Times,serif" font-size="14.00" fill="#000000">HomePageComponent</text>
</g>
<!-- HomePageComponent&#45;&gt;HomeModule -->
<g id="edge20" class="edge">
<title>HomePageComponent&#45;&gt;HomeModule</title>
<path fill="none" stroke="#000000" d="M273.5519,-331.0555C273.5519,-342.439 273.5519,-355 273.5519,-355 273.5519,-355 662.8618,-355 662.8618,-355 662.8618,-355 662.8618,-360.8056 662.8618,-360.8056"/>
<polygon fill="#000000" stroke="#000000" points="659.3619,-360.8055 662.8618,-370.8056 666.3619,-360.8056 659.3619,-360.8055"/>
</g>
<!-- LayoutContainerComponent -->
<g id="node22" class="node">
<title>LayoutContainerComponent</title>
<polygon fill="#ffffb3" stroke="#000000" points="904.1979,-190 727.8021,-190 727.8021,-154 904.1979,-154 904.1979,-190"/>
<text text-anchor="middle" x="816" y="-167.8" font-family="Times,serif" font-size="14.00" fill="#000000">LayoutContainerComponent</text>
</g>
<!-- LayoutContainerComponent&#45;&gt;LayoutModule -->
<g id="edge22" class="edge">
<title>LayoutContainerComponent&#45;&gt;LayoutModule</title>
<path fill="none" stroke="#000000" d="M895.9681,-190.0225C895.9681,-207.3734 895.9681,-231 895.9681,-231 895.9681,-231 976.2357,-231 976.2357,-231"/>
<polygon fill="#000000" stroke="#000000" points="976.2357,-234.5001 986.2357,-231 976.2357,-227.5001 976.2357,-234.5001"/>
</g>
<!-- SimpleLayoutPresenterComponent -->
<g id="node23" class="node">
<title>SimpleLayoutPresenterComponent</title>
<polygon fill="#ffffb3" stroke="#000000" points="1134.2422,-190 921.7578,-190 921.7578,-154 1134.2422,-154 1134.2422,-190"/>
<text text-anchor="middle" x="1028" y="-167.8" font-family="Times,serif" font-size="14.00" fill="#000000">SimpleLayoutPresenterComponent</text>
</g>
<!-- SimpleLayoutPresenterComponent&#45;&gt;LayoutModule -->
<g id="edge23" class="edge">
<title>SimpleLayoutPresenterComponent&#45;&gt;LayoutModule</title>
<path fill="none" stroke="#000000" d="M1019.4654,-190.1061C1019.4654,-190.1061 1019.4654,-208.991 1019.4654,-208.991"/>
<polygon fill="#000000" stroke="#000000" points="1015.9655,-208.9909 1019.4654,-218.991 1022.9655,-208.991 1015.9655,-208.9909"/>
</g>
<!-- LayoutModule&#45;&gt;SharedModule -->
<g id="edge31" class="edge">
<title>LayoutModule&#45;&gt;SharedModule</title>
<path fill="none" stroke="#000000" d="M1052.5346,-255.1097C1052.5346,-264.897 1052.5346,-275 1052.5346,-275 1052.5346,-275 1368.0072,-275 1368.0072,-275 1368.0072,-275 1368.0072,-284.8903 1368.0072,-284.8903"/>
<polygon fill="#000000" stroke="#000000" points="1364.5073,-284.8903 1368.0072,-294.8903 1371.5073,-284.8904 1364.5073,-284.8903"/>
</g>
<!-- LayoutContainerComponent  -->
<g id="node25" class="node">
<title>LayoutContainerComponent </title>
<polygon fill="#fb8072" stroke="#000000" points="1125.6981,-331 946.3019,-331 946.3019,-295 1125.6981,-295 1125.6981,-331"/>
<text text-anchor="middle" x="1036" y="-308.8" font-family="Times,serif" font-size="14.00" fill="#000000">LayoutContainerComponent </text>
</g>
<!-- LayoutModule&#45;&gt;LayoutContainerComponent  -->
<g id="edge26" class="edge">
<title>LayoutModule&#45;&gt;LayoutContainerComponent </title>
<path fill="none" stroke="#000000" stroke-dasharray="5,2" d="M1019.4654,-255.0109C1019.4654,-255.0109 1019.4654,-284.855 1019.4654,-284.855"/>
<polygon fill="#000000" stroke="#000000" points="1015.9655,-284.8549 1019.4654,-294.855 1022.9655,-284.855 1015.9655,-284.8549"/>
</g>
<!-- LayoutService -->
<g id="node26" class="node">
<title>LayoutService</title>
<ellipse fill="#fdb462" stroke="#000000" cx="637" cy="-172" rx="67.1946" ry="18"/>
<text text-anchor="middle" x="637" y="-167.8" font-family="Times,serif" font-size="14.00" fill="#000000">LayoutService</text>
</g>
<!-- LayoutService&#45;&gt;LayoutModule -->
<g id="edge27" class="edge">
<title>LayoutService&#45;&gt;LayoutModule</title>
<path fill="none" stroke="#000000" d="M683.6045,-185.0225C683.6045,-205.5196 683.6045,-243 683.6045,-243 683.6045,-243 976.2577,-243 976.2577,-243"/>
<polygon fill="#000000" stroke="#000000" points="976.2578,-246.5001 986.2577,-243 976.2577,-239.5001 976.2578,-246.5001"/>
</g>
<!-- NotFoundPageComponent -->
<g id="node27" class="node">
<title>NotFoundPageComponent</title>
<polygon fill="#ffffb3" stroke="#000000" points="529.8243,-331 364.1757,-331 364.1757,-295 529.8243,-295 529.8243,-331"/>
<text text-anchor="middle" x="447" y="-308.8" font-family="Times,serif" font-size="14.00" fill="#000000">NotFoundPageComponent</text>
</g>
<!-- NotFoundPageComponent&#45;&gt;NotFoundModule -->
<g id="edge28" class="edge">
<title>NotFoundPageComponent&#45;&gt;NotFoundModule</title>
<path fill="none" stroke="#000000" d="M529.7826,-313C632.0288,-313 792.6117,-313 792.6117,-313 792.6117,-313 792.6117,-360.9891 792.6117,-360.9891"/>
<polygon fill="#000000" stroke="#000000" points="789.1118,-360.989 792.6117,-370.9891 796.1118,-360.9891 789.1118,-360.989"/>
</g>
</g>
</svg>
